<svg width="324" height="137" viewBox="0 0 324 137" fill="none" xmlns="http://www.w3.org/2000/svg">
<path d="M324 2.42609C291.324 2.42609 308.166 52.3773 276.788 58.4782C243.481 64.9544 233.912 38.1565 211.838 38.1565C178.53 38.1565 184.193 90.3333 146.222 94.2087C124.238 96.4523 90.5225 66.1866 73.6104 64.0611C45.1023 60.4782 21.6308 95.5217 0 95.5217" stroke="#5F63F2" stroke-width="3"/>
<path d="M276.788 58.4782C308.166 52.3773 291.324 2.42609 324 2.42609V137.922H0V95.5217C21.6308 95.5217 45.1023 60.4782 73.6104 64.0611C90.5225 66.1866 124.238 96.4523 146.222 94.2086C184.193 90.3332 178.53 38.1565 211.838 38.1565C233.912 38.1565 243.481 64.9544 276.788 58.4782Z" fill="#5F63F2" fill-opacity="0.1"/>
</svg>
