<svg width="324" height="119" viewBox="0 0 324 119" fill="none" xmlns="http://www.w3.org/2000/svg">
<path d="M17.8349 40.9801C9.66055 34.9448 3.7156 31.3237 0 31.3237V120.383H324V56.6723C321.771 56.6723 318.089 54.2269 312.11 50.0335C295.761 38.5664 270.495 5.3723 242.257 58.4829C217.571 104.912 206.005 81.1483 193.473 55.4005L193.211 54.8617L188.009 40.377L182.807 27.7025C159.028 -19.3687 145.651 8.99803 112.954 27.1039C102.884 32.6799 100.321 33.7423 87.6881 42.7907C50.5321 72.3682 26.0092 47.0154 17.8349 40.9801Z" fill="#FA8B0C" fill-opacity="0.1"/>
<path d="M0 31.3237C3.7156 31.3237 9.66055 34.9448 17.8349 40.9801C26.0092 47.0154 50.5321 72.3682 87.6881 42.7907C100.321 33.7423 102.884 32.6799 112.954 27.1039C145.651 8.99803 159.028 -19.3687 182.807 27.7025L188.009 40.377L193.211 54.8617C205.844 80.8135 217.399 105.236 242.257 58.4829C270.495 5.3723 295.761 38.5664 312.11 50.0335C318.089 54.2269 321.771 56.6723 324 56.6723" stroke="#FA8B0C" stroke-width="3"/>
</svg>
