<svg width="324" height="119" viewBox="0 0 324 119" fill="none" xmlns="http://www.w3.org/2000/svg">
<path d="M0 26.4491C2.85463 26.4491 14.6919 34.7582 24.2643 42.1084C35.6828 50.8762 49.4613 64.1074 76.858 45.5036C98.7056 30.6679 105.02 28.4914 121.04 17.3904C134.599 7.99439 162.46 -12.5658 179.841 18.3062C183.41 25.8226 191.595 39.612 203.42 62.5558C210.784 76.8428 219.789 82.0791 228.273 67.6254C238.742 49.7873 239.779 48.9477 247.602 38.1297C257.267 24.7645 273.835 16.2566 294.026 32.7125C304.018 40.8554 306.738 43.2577 313.875 48.2687C316.183 49.8891 322.287 54.0092 324 54.0092" stroke="#FF69A5" stroke-width="3"/>
<path d="M24.2643 42.1084C14.6919 34.7582 2.85463 26.4491 0 26.4491V119.461H324V54.0092C322.287 54.0092 316.183 49.8891 313.875 48.2687C306.738 43.2577 304.018 40.8554 294.026 32.7125C273.835 16.2566 257.267 24.7645 247.602 38.1297C239.779 48.9477 238.742 49.7873 228.273 67.6254C219.789 82.0791 210.784 76.8428 203.42 62.5558C191.595 39.612 183.41 25.8226 179.841 18.3062C162.46 -12.5658 134.599 7.99439 121.04 17.3904C105.02 28.4914 98.7056 30.6679 76.858 45.5036C49.4613 64.1074 35.6828 50.8762 24.2643 42.1084Z" fill="#FF69A5" fill-opacity="0.1"/>
</svg>
